<?xml version="1.0" encoding="UTF-8"?>
<svg id="Layer_1" data-name="Layer 1" xmlns="http://www.w3.org/2000/svg" viewBox="0 0 838.41 886.09">
  <defs>
    <style>
      .cls-1 {
        fill: none;
        stroke: #b76e79;
        stroke-linecap: round;
        stroke-linejoin: round;
        stroke-width: 36.09px;
      }
    </style>
  </defs>
  <g id="Graphic_Elements" data-name="Graphic Elements">
    <path class="cls-1" d="m461.04,744.89c21.07-15.65,41.29-32.58,60.55-50.67,35.81-33.65,78.23-76.91,105.1-126.02,22.2-40.56,33.79-85.11,22.3-131.53-11.01-44.49-46.13-83.58-89.19-89.04-49.79-6.31-107.76,41.16-140.6,81.41-32.84-40.25-90.81-87.72-140.6-81.41-43.06,5.46-78.18,44.54-89.19,89.03-11.49,46.42.1,90.97,22.3,131.53,26.87,49.11,69.29,92.37,105.11,126.02,19.25,18.09,39.48,35.03,60.55,50.67l58.23,36.44,236.56,80.64c72.7,24.78,148.21-29.26,148.21-106.06v-378.61c0-32.76-14.34-63.88-39.24-85.17L492.03,44.93c-41.93-35.85-103.71-35.85-145.64,0L57.28,292.12c-24.9,21.29-39.24,52.41-39.24,85.17v378.61c0,76.8,75.52,130.85,148.21,106.06l236.55-80.64,58.24-36.43Z"/>
  </g>
</svg>